HIERARCHY
ROOT Hips
{
	OFFSET 0.000000 0.000000 0.000000
	CHANNELS 6 Xposition Yposition Zposition Xrotation Yrotation Zrotation
	JOINT LeftUpLeg_virtual
	{
		OFFSET 0.000000 0.000000 0.000000
		CHANNELS 3 Xrotation Yrotation Zrotation
		JOINT LeftUpLeg
		{
			OFFSET 13.026900 -6.336304 -1.092800
			CHANNELS 3 Xrotation Yrotation Zrotation
			JOINT LeftLeg
			{
				OFFSET 0.524474 -46.096886 9.782700
				CHANNELS 3 Xrotation Yrotation Zrotation
				JOINT LeftFoot
				{
					OFFSET -0.524474 -53.427422 -12.948200
					CHANNELS 3 Xrotation Yrotation Zrotation
					JOINT LeftToeBase
					{
						OFFSET 0.192200 -14.009700 16.364100
						CHANNELS 3 Xrotation Yrotation Zrotation
						JOINT LeftToe_End
						{
							OFFSET -1.784700 -0.561700 9.474800
							CHANNELS 3 Xrotation Yrotation Zrotation
							End Site
							{
								OFFSET 0 0 0
							}
						}
					}
				}
			}
		}
	}
	JOINT RightUpLeg_virtual
	{
		OFFSET 0.000000 0.000000 0.000000
		CHANNELS 3 Xrotation Yrotation Zrotation
		JOINT RightUpLeg
		{
			OFFSET -12.883000 -6.336304 -1.092800
			CHANNELS 3 Xrotation Yrotation Zrotation
			JOINT RightLeg
			{
				OFFSET -0.524587 -46.096825 9.782800
				CHANNELS 3 Xrotation Yrotation Zrotation
				JOINT RightFoot
				{
					OFFSET 0.524587 -53.427383 -12.948300
					CHANNELS 3 Xrotation Yrotation Zrotation
					JOINT RightToeBase
					{
						OFFSET -0.192200 -14.009700 16.364100
						CHANNELS 3 Xrotation Yrotation Zrotation
						JOINT RightToe_End
						{
							OFFSET 1.784700 -0.561700 9.474800
							CHANNELS 3 Xrotation Yrotation Zrotation
							End Site
							{
								OFFSET 0 0 0
							}
						}
					}
				}
			}
		}
	}
	JOINT Spine_virtual
	{
		OFFSET 0.000000 0.000000 0.000000
		CHANNELS 3 Xrotation Yrotation Zrotation
		JOINT Spine
		{
			OFFSET 0.072000 7.257294 -0.789700
			CHANNELS 3 Xrotation Yrotation Zrotation
			JOINT Spine1
			{
				OFFSET 0.000000 12.508769 -0.658067
				CHANNELS 3 Xrotation Yrotation Zrotation
				JOINT Spine1_split
				{
					OFFSET 0.000000 12.508769 -0.658067
					CHANNELS 3 Xrotation Yrotation Zrotation
					JOINT Spine2
					{
						OFFSET 0.000000 12.508769 -0.658067
						CHANNELS 3 Xrotation Yrotation Zrotation
						JOINT Neck_virtual
						{
							OFFSET 0.000000 0.000000 0.000000
							CHANNELS 3 Xrotation Yrotation Zrotation
							JOINT Neck
							{
								OFFSET 0.000000 14.033295 7.520400
								CHANNELS 3 Xrotation Yrotation Zrotation
								JOINT Head
								{
									OFFSET 0.000000 8.198502 5.703100
									CHANNELS 3 Xrotation Yrotation Zrotation
									JOINT HeadTop_End
									{
										OFFSET 0.000000 17.760803 13.332701
										CHANNELS 3 Xrotation Yrotation Zrotation
										End Site
										{
											OFFSET 0 0 0
										}
									}
								}
							}
						}
						JOINT LeftShoulder_virtual
						{
							OFFSET 0.000000 0.000000 0.000000
							CHANNELS 3 Xrotation Yrotation Zrotation
							JOINT LeftShoulder
							{
								OFFSET 6.292450 5.785301 -0.669000
								CHANNELS 3 Xrotation Yrotation Zrotation
								JOINT LeftShoulder_split
								{
									OFFSET 6.292450 5.785301 -0.669000
									CHANNELS 3 Xrotation Yrotation Zrotation
									JOINT LeftArm
									{
										OFFSET 13.907140 -6.093903 1.965100
										CHANNELS 3 Xrotation Yrotation Zrotation
										JOINT LeftForeArm
										{
											OFFSET 34.140198 0.000000 0.000000
											CHANNELS 3 Xrotation Yrotation Zrotation
											JOINT LeftHand
											{
												OFFSET 40.960209 0.000000 0.000000
												CHANNELS 3 Xrotation Yrotation Zrotation
												End Site
												{
													OFFSET 0 0 0
												}
											}
										}
									}
								}
							}
						}
						JOINT RightShoulder_virtual
						{
							OFFSET 0.000000 0.000000 0.000000
							CHANNELS 3 Xrotation Yrotation Zrotation
							JOINT RightShoulder
							{
								OFFSET -6.292450 5.785301 -0.669000
								CHANNELS 3 Xrotation Yrotation Zrotation
								JOINT RightShoulder_split
								{
									OFFSET -6.292450 5.785301 -0.669000
									CHANNELS 3 Xrotation Yrotation Zrotation
									JOINT RightArm
									{
										OFFSET -13.907140 -6.093903 1.965100
										CHANNELS 3 Xrotation Yrotation Zrotation
										JOINT RightForeArm
										{
											OFFSET -34.140198 0.000000 0.000000
											CHANNELS 3 Xrotation Yrotation Zrotation
											JOINT RightHand
											{
												OFFSET -40.960209 0.000000 0.000000
												CHANNELS 3 Xrotation Yrotation Zrotation
												End Site
												{
													OFFSET 0 0 0
												}
											}
										}
									}
								}
							}
						}
					}
				}
			}
		}
	}
}
MOTION
Frames: 11
Frame Time: 0.03333333
-0.538392 107.944244 0.581032 0.000000 0.000000 0.000000 -6.104422 -43.212718 -4.140818 -28.118808 5.790317 13.206273 32.819233 -13.430474 -0.043978 -2.035697 0.429828 -7.881459 -2.321962 -3.217396 0.803255 0.000000 0.000000 0.000000 -6.104422 -43.212718 -4.140818 -3.988445 -13.273897 -16.987393 31.800104 -8.637718 -0.389567 -19.544368 -4.350095 18.459027 -1.785102 -0.356713 0.333197 0.000000 0.000000 0.000000 -6.104422 -43.212718 -4.140818 5.825610 4.834105 -1.150361 11.835725 9.038091 -3.084132 0.000000 0.000000 0.000000 0.000000 0.000000 0.000000 11.835727 9.038085 -3.084133 -4.303058 -1.272936 0.206308 -6.271930 20.437782 -0.377164 0.000000 0.000000 0.000000 11.835727 9.038085 -3.084133 1.387438 -0.696996 -7.876280 0.000000 0.000000 0.000000 -14.260093 2.393805 -63.277113 9.865045 -47.524890 5.927930 0.000000 0.000000 0.000000 11.835727 9.038085 -3.084133 1.410924 9.461509 9.792748 0.000000 0.000000 0.000000 1.220054 -24.270715 60.532927 -6.660691 41.858398 8.043844 0.000000 0.000000 0.000000 
-0.531462 107.943993 0.585228 0.000000 0.000000 0.000000 -6.047340 -43.357132 -4.077749 -28.105848 5.785069 13.178950 32.819359 -13.267494 0.009340 -2.075307 0.441899 -7.971169 -2.321965 -3.217364 0.803256 0.000000 0.000000 0.000000 -6.047340 -43.357132 -4.077749 -4.133951 -13.262806 -16.983095 31.820472 -8.531296 -0.509277 -19.533221 -4.346737 18.463287 -1.785090 -0.356750 0.333201 0.000000 0.000000 0.000000 -6.047340 -43.357132 -4.077749 5.817317 4.835816 -1.173045 11.819977 9.041246 -3.121167 0.000000 0.000000 0.000000 0.000000 0.000000 0.000000 11.819974 9.041248 -3.121166 -4.387860 -1.297856 0.163179 -6.136320 20.653468 -0.443797 0.000000 0.000000 0.000000 11.819974 9.041248 -3.121166 1.389709 -0.709915 -7.876829 0.000000 0.000000 0.000000 -14.244243 2.394030 -63.227232 9.904593 -47.573135 5.947264 0.000000 0.000000 0.000000 11.819974 9.041248 -3.121166 1.393254 9.523886 9.813709 0.000000 0.000000 0.000000 1.197319 -24.211982 60.500696 -6.605027 41.712696 8.037638 0.000000 0.000000 0.000000 
-0.523123 107.946899 0.583530 0.000000 0.000000 0.000000 -5.951937 -43.494692 -3.983897 -28.126459 5.775424 13.153447 32.801748 -13.115275 0.048741 -2.101419 0.448222 -8.059111 -2.321964 -3.217360 0.803262 0.000000 0.000000 0.000000 -5.951937 -43.494692 -3.983897 -4.296317 -13.224035 -16.976268 31.835396 -8.460242 -0.626775 -19.519916 -4.351155 18.483670 -1.795662 -0.370163 0.345644 0.000000 0.000000 0.000000 -5.951937 -43.494692 -3.983897 5.809811 4.813983 -1.189941 11.803854 8.997829 -3.142078 0.000000 0.000000 0.000000 0.000000 0.000000 0.000000 11.803859 8.997833 -3.142083 -4.445934 -1.219820 0.079431 -6.011195 21.010850 -0.587838 0.000000 0.000000 0.000000 11.803859 8.997833 -3.142083 1.389178 -0.727277 -7.903652 0.000000 0.000000 0.000000 -14.193227 2.416426 -63.198176 9.925519 -47.632677 5.956989 0.000000 0.000000 0.000000 11.803859 8.997833 -3.142083 1.394625 9.568492 9.789851 0.000000 0.000000 0.000000 1.143552 -24.160797 60.514042 -6.548423 41.493027 7.985879 0.000000 0.000000 0.000000 
-0.515055 107.930145 0.584736 0.000000 0.000000 0.000000 -5.880537 -43.565733 -3.925752 -28.172842 5.724120 13.102450 32.851834 -12.982237 0.129557 -2.147798 0.448298 -8.137722 -2.321961 -3.217385 0.803257 0.000000 0.000000 0.000000 -5.880537 -43.565733 -3.925752 -4.417611 -13.210986 -16.950113 31.872350 -8.422146 -0.735320 -19.519350 -4.360832 18.522297 -1.806787 -0.381015 0.356372 0.000000 0.000000 0.000000 -5.880537 -43.565733 -3.925752 5.811400 4.761803 -1.193895 11.804312 8.893244 -3.142280 0.000000 0.000000 0.000000 0.000000 0.000000 0.000000 11.804312 8.893254 -3.142278 -4.539883 -1.073144 0.023835 -5.845977 21.499248 -0.825203 0.000000 0.000000 0.000000 11.804312 8.893254 -3.142278 1.389970 -0.732062 -7.903797 0.000000 0.000000 0.000000 -14.170284 2.428515 -63.191701 9.950640 -47.720718 5.983772 0.000000 0.000000 0.000000 11.804312 8.893254 -3.142278 1.380861 9.601773 9.807596 0.000000 0.000000 0.000000 1.087382 -24.124686 60.474652 -6.503692 41.341697 7.946000 0.000000 0.000000 0.000000 
-0.508867 107.904343 0.591045 0.000000 0.000000 0.000000 -5.785427 -43.602401 -3.864089 -28.257242 5.652126 13.044534 32.931016 -12.856795 0.225698 -2.201249 0.440375 -8.209517 -2.321965 -3.217395 0.803263 0.000000 0.000000 0.000000 -5.785427 -43.602401 -3.864089 -4.531979 -13.183267 -16.904773 31.919349 -8.435537 -0.837369 -19.531022 -4.372529 18.576279 -1.815355 -0.393001 0.367749 0.000000 0.000000 0.000000 -5.785427 -43.602401 -3.864089 5.811589 4.689451 -1.183501 11.800385 8.749121 -3.116193 0.000000 0.000000 0.000000 0.000000 0.000000 0.000000 11.800388 8.749109 -3.116192 -4.616737 -0.905122 -0.032050 -5.697689 22.095665 -1.108009 0.000000 0.000000 0.000000 11.800388 8.749109 -3.116192 1.386656 -0.733908 -7.854093 0.000000 0.000000 0.000000 -14.137247 2.446222 -63.234506 10.003342 -47.795400 6.023937 0.000000 0.000000 0.000000 11.800388 8.749109 -3.116192 1.364998 9.655444 9.837856 0.000000 0.000000 0.000000 1.069875 -24.098456 60.371455 -6.439589 41.224232 7.953311 0.000000 0.000000 0.000000 
-0.509336 107.894234 0.592533 0.000000 0.000000 0.000000 -5.692067 -43.610088 -3.784493 -28.324975 5.620134 12.985293 32.956295 -12.786997 0.289867 -2.226226 0.430694 -8.248879 -2.321458 -3.222528 0.807276 0.000000 0.000000 0.000000 -5.692067 -43.610088 -3.784493 -4.617612 -13.161504 -16.865450 31.937138 -8.480772 -0.937566 -19.533322 -4.386043 18.638999 -1.825572 -0.406410 0.380301 0.000000 0.000000 0.000000 -5.692067 -43.610088 -3.784493 5.817320 4.598561 -1.181834 11.806709 8.567345 -3.100687 0.000000 0.000000 0.000000 0.000000 0.000000 0.000000 11.806712 8.567356 -3.100689 -4.727057 -0.736490 -0.094565 -5.577007 22.835679 -1.357215 0.000000 0.000000 0.000000 11.806712 8.567356 -3.100689 1.382758 -0.743538 -7.811298 0.000000 0.000000 0.000000 -14.101905 2.479799 -63.266888 9.979616 -47.901213 6.023727 0.000000 0.000000 0.000000 11.806712 8.567356 -3.100689 1.357418 9.718541 9.855733 0.000000 0.000000 0.000000 1.002258 -24.044925 60.303692 -6.405891 41.021624 7.934778 0.000000 0.000000 0.000000 
-0.504246 107.893005 0.589443 0.000000 0.000000 0.000000 -5.570105 -43.613097 -3.680388 -28.411058 5.626373 12.949981 32.950906 -12.765017 0.316874 -2.236565 0.416988 -8.257257 -2.320244 -3.233640 0.817107 0.000000 0.000000 0.000000 -5.570105 -43.613097 -3.680388 -4.727563 -13.134200 -16.821999 31.944067 -8.531038 -1.049625 -19.522837 -4.399304 18.694199 -1.829965 -0.415830 0.392387 0.000000 0.000000 0.000000 -5.570105 -43.613097 -3.680388 5.823919 4.500148 -1.181642 11.814023 8.370881 -3.082745 0.000000 0.000000 0.000000 0.000000 0.000000 0.000000 11.814034 8.370863 -3.082744 -4.864143 -0.432099 -0.128964 -5.531295 23.950777 -1.736578 0.000000 0.000000 0.000000 11.814034 8.370863 -3.082744 1.380341 -0.755281 -7.786168 0.000000 0.000000 0.000000 -14.057725 2.507663 -63.288751 10.062575 -47.983745 6.077448 0.000000 0.000000 0.000000 11.814034 8.370863 -3.082744 1.345654 9.817696 9.847982 0.000000 0.000000 0.000000 0.930063 -24.016907 60.254112 -6.401219 40.809540 7.925757 0.000000 0.000000 0.000000 
-0.502164 107.921875 0.586319 0.000000 0.000000 0.000000 -5.442860 -43.588232 -3.551709 -28.450806 5.616567 12.853819 32.875155 -12.708617 0.371515 -2.221190 0.401643 -8.288103 -2.319308 -3.241194 0.824828 0.000000 0.000000 0.000000 -5.442860 -43.588232 -3.551709 -4.790316 -13.117566 -16.795030 31.875526 -8.609695 -1.143848 -19.481991 -4.402779 18.781567 -1.826651 -0.437982 0.405700 0.000000 0.000000 0.000000 -5.442860 -43.588232 -3.551709 5.830408 4.391699 -1.186691 11.821045 8.154676 -3.073606 0.000000 0.000000 0.000000 0.000000 0.000000 0.000000 11.821037 8.154683 -3.073609 -5.069476 0.072922 -0.161027 -5.637788 25.660397 -2.236063 0.000000 0.000000 0.000000 11.821037 8.154683 -3.073609 1.370381 -0.779471 -7.711519 0.000000 0.000000 0.000000 -14.019020 2.552147 -63.374409 9.993478 -47.981775 6.019821 0.000000 0.000000 0.000000 11.821037 8.154683 -3.073609 1.332279 9.887138 9.837813 0.000000 0.000000 0.000000 0.794924 -23.911372 60.203623 -6.375822 40.567345 7.876147 0.000000 0.000000 0.000000 
-0.490617 107.918587 0.596233 0.000000 0.000000 0.000000 -5.251404 -43.596732 -3.379429 -28.572937 5.585628 12.762514 32.876487 -12.616106 0.425978 -2.243319 0.388639 -8.320272 -2.318788 -3.245969 0.829030 0.000000 0.000000 0.000000 -5.251404 -43.596732 -3.379429 -4.958007 -13.073581 -16.785214 31.893237 -8.666557 -1.244086 -19.471432 -4.420431 18.838439 -1.842628 -0.440850 0.415118 0.000000 0.000000 0.000000 -5.251404 -43.596732 -3.379429 5.818546 4.291846 -1.195486 11.791741 7.954960 -3.069599 0.000000 0.000000 0.000000 0.000000 0.000000 0.000000 11.791745 7.954969 -3.069603 -5.441502 0.704636 -0.272705 -5.743775 27.957996 -2.679250 0.000000 0.000000 0.000000 11.791745 7.954969 -3.069603 1.365309 -0.770389 -7.628036 0.000000 0.000000 0.000000 -13.939470 2.623766 -63.491622 10.137719 -47.962418 6.094975 0.000000 0.000000 0.000000 11.791745 7.954969 -3.069603 1.308429 10.028663 9.848064 0.000000 0.000000 0.000000 0.782402 -23.870755 60.165900 -6.361704 40.447141 7.837350 0.000000 0.000000 0.000000 
-0.502277 107.941803 0.615456 0.000000 0.000000 0.000000 -5.092348 -43.648375 -3.164373 -28.593100 5.604320 12.658291 32.785161 -12.508297 0.420571 -2.253273 0.375587 -8.343291 -2.316189 -3.273133 0.849347 0.000000 0.000000 0.000000 -5.092348 -43.648375 -3.164373 -5.118639 -13.070551 -16.828428 31.874215 -8.659430 -1.389121 -19.460636 -4.426947 18.880916 -1.859584 -0.451230 0.427315 0.000000 0.000000 0.000000 -5.092348 -43.648375 -3.164373 5.814503 4.202718 -1.229824 11.779150 7.776069 -3.105688 0.000000 0.000000 0.000000 0.000000 0.000000 0.000000 11.779145 7.776065 -3.105690 -5.858821 1.491585 -0.363308 -5.841161 30.369726 -3.057333 0.000000 0.000000 0.000000 11.779145 7.776065 -3.105690 1.365950 -0.725245 -7.539273 0.000000 0.000000 0.000000 -13.930844 2.608424 -63.596130 10.287610 -47.783532 6.116951 0.000000 0.000000 0.000000 11.779145 7.776065 -3.105690 1.277135 10.217618 9.854072 0.000000 0.000000 0.000000 0.735541 -23.828450 60.165695 -6.384992 40.171122 7.848768 0.000000 0.000000 0.000000 
-0.503826 107.964958 0.635250 0.000000 0.000000 0.000000 -4.921022 -43.606851 -2.998775 -28.667998 5.592944 12.556552 32.724717 -12.471154 0.457341 -2.249999 0.360127 -8.352290 -2.315178 -3.283864 0.857161 0.000000 0.000000 0.000000 -4.921022 -43.606851 -2.998775 -5.197987 -13.052754 -16.807583 31.806319 -8.752145 -1.492236 -19.424315 -4.449237 18.975237 -1.856303 -0.469556 0.440467 0.000000 0.000000 0.000000 -4.921022 -43.606851 -2.998775 5.813740 4.111008 -1.234951 11.773013 7.592939 -3.101552 0.000000 0.000000 0.000000 0.000000 0.000000 0.000000 11.773016 7.592935 -3.101553 -6.241473 2.317816 -0.387623 -5.868700 32.611121 -3.471636 0.000000 0.000000 0.000000 11.773016 7.592935 -3.101553 1.365099 -0.766693 -7.575605 0.000000 0.000000 0.000000 -13.888058 2.575483 -63.545881 10.349689 -47.678938 6.066255 0.000000 0.000000 0.000000 11.773016 7.592935 -3.101553 1.264767 10.343393 9.777184 0.000000 0.000000 0.000000 0.656706 -23.718033 60.181323 -6.231986 39.777181 7.848984 0.000000 0.000000 0.000000 
